<svg width="192" height="32" fill="none" xmlns="http://www.w3.org/2000/svg"><path fill-rule="evenodd" clip-rule="evenodd" d="M2.694 26.324a2.694 2.694 0 0 0 2.695-2.697V2.698a2.694 2.694 0 1 0-5.389 0v20.93a2.694 2.694 0 0 0 2.694 2.697Zm15.506.213c5.92 0 10.317-4.435 10.317-9.898v-.071c0-5.464-4.36-9.827-10.246-9.827-5.92 0-10.317 4.434-10.317 9.898v.07c0 5.464 4.361 9.828 10.246 9.828Zm-4.928-9.898c0 2.802 2.021 5.25 5 5.25 3.084 0 4.927-2.377 4.927-5.18v-.07c0-2.803-2.02-5.251-4.999-5.251-3.084 0-4.928 2.377-4.928 5.18v.07Zm26.886 9.898c5.921 0 10.317-4.435 10.317-9.898v-.071c0-5.464-4.36-9.827-10.246-9.827-5.92 0-10.316 4.434-10.316 9.898v.07c0 5.464 4.36 9.828 10.245 9.828Zm-4.928-9.898c0 2.802 2.021 5.25 5 5.25 3.084 0 4.927-2.377 4.927-5.18v-.07c0-2.803-2.02-5.251-4.998-5.251-3.085 0-4.928 2.377-4.928 5.18v.07ZM55.487 32a2.694 2.694 0 0 0 2.694-2.696v-5.676c1.277 1.525 3.05 2.838 5.921 2.838 4.503 0 8.65-3.477 8.65-9.827v-.071c0-6.35-4.218-9.827-8.65-9.827-2.8 0-4.609 1.312-5.92 3.086V9.58a2.694 2.694 0 1 0-5.39 0v19.725A2.694 2.694 0 0 0 55.487 32Zm2.623-15.361c0 3.157 2.092 5.25 4.61 5.25 2.517 0 4.644-2.058 4.644-5.25v-.071c0-3.158-2.127-5.25-4.645-5.25-2.517 0-4.608 2.092-4.608 5.25v.07Zm23.696 9.827c4.113 0 7.268-1.916 7.268-6.138v-.07c0-3.477-3.084-4.755-5.743-5.642l-.599-.204c-1.796-.608-3.266-1.107-3.266-2.066v-.071c0-.745.674-1.313 1.986-1.313 1.134 0 2.588.462 4.112 1.207.355.177.603.248.993.248 1.205 0 2.162-.922 2.162-2.129 0-.922-.496-1.632-1.276-2.022-1.843-.922-3.9-1.454-5.885-1.454-3.83 0-6.949 2.164-6.949 6.03v.072c0 3.69 3.014 4.93 5.672 5.711.244.075.485.146.72.215 1.777.526 3.216.95 3.216 1.985v.07c0 .852-.71 1.42-2.27 1.42-1.524 0-3.332-.568-5.14-1.703a2.066 2.066 0 0 0-1.064-.284c-1.205 0-2.127.923-2.127 2.129 0 .851.461 1.49 1.028 1.845 2.305 1.49 4.822 2.164 7.162 2.164Zm18.697-.568c-.993.39-1.915.532-3.085.532-3.297 0-5.53-1.313-5.53-5.712v-9.01h-.178A2.3 2.3 0 0 1 89.406 9.4a2.3 2.3 0 0 1 2.304-2.306h.177V4.718a2.694 2.694 0 1 1 5.39 0v2.377h2.375a2.3 2.3 0 0 1 2.304 2.306 2.3 2.3 0 0 1-2.304 2.306h-2.376v8.124c0 1.242.532 1.845 1.737 1.845.1 0 .257-.011.393-.02.106-.008.2-.015.246-.015 1.205 0 2.233.993 2.233 2.235 0 .958-.638 1.738-1.382 2.022Zm9.939.568c2.73 0 4.325-1.455 5.566-3.051v.213a2.695 2.695 0 1 0 5.389 0V9.578a2.694 2.694 0 1 0-5.389 0v8.125c0 2.554-1.311 3.867-3.368 3.867-2.056 0-3.261-1.313-3.261-3.867V9.579a2.695 2.695 0 1 0-5.389 0v9.827c0 4.363 2.375 7.06 6.452 7.06Zm27.915-3.087c-1.312 1.774-3.12 3.087-5.921 3.087-4.432 0-8.651-3.477-8.651-9.827v-.071c0-6.35 4.148-9.827 8.651-9.827 2.872 0 4.644 1.312 5.921 2.838V2.696a2.694 2.694 0 1 1 5.388 0v20.931a2.694 2.694 0 1 1-5.388 0v-.248Zm-4.538-1.49c-2.518 0-4.645-2.093-4.645-5.25v-.071c0-3.193 2.127-5.25 4.645-5.25 2.517 0 4.608 2.092 4.608 5.25v.07c0 3.158-2.091 5.251-4.608 5.251Zm19.122-19.264c0 1.561-1.312 2.555-3.014 2.555-1.702 0-3.014-.994-3.014-2.555v-.07c0-1.562 1.312-2.52 3.014-2.52 1.702 0 3.014.958 3.014 2.52v.07Zm-3.014 23.699a2.694 2.694 0 0 0 2.694-2.697V9.58a2.694 2.694 0 1 0-5.388 0v14.049a2.694 2.694 0 0 0 2.694 2.696Zm25.823-9.685c0 5.463-4.396 9.898-10.317 9.898-5.885 0-10.246-4.364-10.246-9.828v-.07c0-5.464 4.396-9.898 10.317-9.898 5.885 0 10.246 4.363 10.246 9.827v.07Zm-10.246 5.25c-2.978 0-4.999-2.448-4.999-5.25v-.071c0-2.803 1.843-5.18 4.928-5.18 2.978 0 4.999 2.448 4.999 5.25v.071c0 2.803-1.844 5.18-4.928 5.18ZM192 20.33c0 4.22-3.155 6.137-7.268 6.137-2.34 0-4.857-.674-7.161-2.164a2.148 2.148 0 0 1-1.029-1.845c0-1.206.922-2.129 2.128-2.129.39 0 .78.107 1.063.284 1.808 1.135 3.616 1.703 5.141 1.703 1.56 0 2.269-.568 2.269-1.42v-.07c0-1.034-1.439-1.46-3.216-1.985-.235-.07-.475-.14-.719-.215-2.659-.78-5.673-2.022-5.673-5.711v-.071c0-3.867 3.12-6.031 6.949-6.031 1.985 0 4.042.532 5.885 1.454.78.39 1.276 1.1 1.276 2.022 0 1.207-.957 2.129-2.162 2.129-.39 0-.638-.071-.993-.248-1.524-.745-2.978-1.207-4.112-1.207-1.312 0-1.986.568-1.986 1.313v.07c0 .96 1.47 1.459 3.267 2.067l.598.204c2.659.887 5.743 2.165 5.743 5.641v.071Z" fill="#fff"/></svg>